<svg width="598" height="583" id="i2"><defs id="SvgjsDefs3955"></defs><g id="SvgjsG3956" transform="translate(-0.400002121925354, -0.21607477962970734) scale(5.427763683981585)" rel="mainfill" feature="container" name="outline_container" xmlns:name="outlineContainer_mainfill" fill="#ffffff"><g xmlns="http://www.w3.org/2000/svg" fill=""><path d="M107.9 47c0 .3.1.6.1.9v.9c0 .6.1 1.1.1 1.5s.2 2.9.2 2.3a12.5 12.5 0 0 0 0-1.7c0-.8-.1-1.7-.1-2.5V47l-.2-1.4c-.1-.5-.2-.9-.3-1.2s-.1-.2-.1 0 .2 1.4.3 2.6zM105.2 50.6v-1.3l-.2-1.4c-.1-.5-.2-.9-.3-1.2s-.1-.2-.1 0 .1 1.3.3 2.4.1.6.1.9v1c0 .6.1 1.1.1 1.5s.2 2.9.2 2.3a12.6 12.6 0 0 0 0-1.7c0-.8-.1-1.7-.1-2.5z"></path><path d="M110.4 56v.6a6.6 6.6 0 0 0-.1.8c0 .4-.1 1-.1 1.7v.7c0 .2 0 .5-.1.7l-.2 1.4v1.4l-.3 1.4a48.6 48.6 0 0 1-3.1 10.2l-.7 1.6a50.5 50.5 0 0 1-5.4 9.2L99 87.5l-.7.9-.8.9a51.8 51.8 0 0 1-5.9 5.7 56.1 56.1 0 0 1-4.8 3.5l-1.4.9-1.4.8-.6.4-.6.3-1.3.7-1.3.6-1.3.6-1.3.5-1.3.5-1.4.5-1.4.4-2 .6-2 .5h-1l-1 .2-1 .2h-5.3l1-.2h.8l.8-.2 1.5-.4.7-.2.7-.2 2.6-.8 2.5-.9 1.5-.6 1.4-.6 2.8-1.4a52.1 52.1 0 0 0 8-5.2 54 54 0 0 0 4.9-3.8 59 59 0 0 0 6.4-5.7l.9-1.1a66.6 66.6 0 0 0 4.1-6.2l.5-.9a59.3 59.3 0 0 0 4.2-10.1l.2-.7a54.1 54.1 0 0 0 1.3-6.2c.1-.5.1-1 .2-1.5s.1-1 .1-1.4.1-1.8.1-2.5-.1-3.9-.3-1.6a5.6 5.6 0 0 1-.1.6 6.6 6.6 0 0 0-.1.8c0 .4-.1 1-.1 1.7v.7c0 .2 0 .5-.1.7l-.2 1.4v1.4l-.3 1.4a48.5 48.5 0 0 1-3.2 10.3l-.7 1.6a50.4 50.4 0 0 1-5.4 9.2l-1.4 1.8-.7.9-.8.9c-1 1.2-2.1 2.3-3.3 3.4l2.1-2.4.9-1.1a66.2 66.2 0 0 0 4.1-6.2l.5-.9a59.2 59.2 0 0 0 4.1-10l.2-.7a54.2 54.2 0 0 0 1.3-6.2c.1-.5.1-1 .2-1.5s.1-1 .1-1.4.1-1.8.1-2.5-.1-3.9-.3-1.6v.6a6.9 6.9 0 0 0-.1.8c0 .4-.1 1-.1 1.7v.7c0 .2 0 .5-.1.7l-.2 1.4v1.4l-.3 1.4a48.6 48.6 0 0 1-3.1 10.2l-.7 1.6a50.5 50.5 0 0 1-5.4 9.2l-1.4 1.8-.7.9-.8.9a51.9 51.9 0 0 1-5.9 5.7l-.7.5-1 .7-1.4.9-1.4.8-.6.4-.6.3-1.3.7-1.3.6-1.3.6-1.3.5-1.3.5-1.4.5-1.4.4-2 .6-2 .5h-1l-1 .2-1 .2h-3l-2 .2h-6.5l-2-.2a55.6 55.6 0 0 1-9.6-1.9l-.8-.2-.8-.3-1.5-.5a51.1 51.1 0 0 1-7.4-3.4l-.6.3-1-.6-1-.6-1.9-1.3a53.6 53.6 0 0 1-6.5-5.4l-.7-.8A51.5 51.5 0 0 1 6.6 63.5a53.2 53.2 0 0 1-.6-9.3V53c0-.4 0-.8.1-1.2l.2-2.3.3-2.3c.1-.8.3-1.5.4-2.3v-.7l.2-.7.3-1.4v-.7l.2-.7.4-1.4.4-1.3a53.5 53.5 0 0 1 4.6-10 49.9 49.9 0 0 1 6.6-8.8 53.6 53.6 0 0 1 7.9-6.9l1.2-.9 1.1-.7L31 10l1-.6 1-.6 1.1-.6 1.1-.6 1.2-.5 1.2-.5 1.4-.3 1.1-.4 1.1-.4A49.1 49.1 0 0 1 51 3.2l4.5-.4h3.4l1.6.2h2.4l.8.2 1.6.4.8.2.8.2 1.5.4 1.5.5.8.3.8.3 1.6.6a44.9 44.9 0 0 1 7.4 3.9l1 .7.5.3.5.4 1 .7.9.7 1.6 1.9 1.6 1.3.3.3.3.3.6.6 1.1 1.1 1.1 1 .5.6.5.6 1 1.1.9 1.1.9 1.1.8 1.1.7 1 .2.2-.3-.5-.8-1.2a50.7 50.7 0 0 0-5.2-6.4 47.5 47.5 0 0 0-6.8-5.8L79.9 10 78 8.9l-1.9-1-.7-.4-.8-.3-1.5-.7a53 53 0 0 0-13.2-3.7h4.3l1.6.2h2.4l.8.2 1.6.4.8.2.8.2 1.5.4 1.5.5.8.3.8.3 1.6.6a44.9 44.9 0 0 1 7.4 3.9l1 .7.5.3.5.4 1 .7.9.7 1.7 1.3 1.5 1.9.3.3.3.3.6.6.6.6.4.5 1 1.1.9 1.1.9 1.1.8 1.1.7 1 .2.2-.3-.5-.8-1.4-1-1.3.8.9.9 1.1.9 1.1.8 1.1.7 1 .2.2-.3-.5-.8-1.2a50.5 50.5 0 0 0-5.2-6.4l-1.1-1.1-1.1-1.2a47.3 47.3 0 0 0-6.8-5.7L83 7.7l-1.8-1-1.9-1-.7-.4-.9-.3-1.5-.7A52.9 52.9 0 0 0 62.8.5L61.4.3h-9.3a51.7 51.7 0 0 0-9.2 1.4 52.9 52.9 0 0 0-8.8 3l-.7.3a56.4 56.4 0 0 0-7.8 4.5l-1.5 1-1.3 1-.3.2-1.5 1-1.4 1.1-1.4 1.2-.7.6-.7.6-1.3 1.3-.7.7-.6.7-.6.7-.6.7-1.2 1.4a59.5 59.5 0 0 0-4.3 6.1c-.6 1.1-1.3 2.1-1.8 3.3l-.4.8-.2.4-.2.4-.7 1.7-.5 1.3a50.2 50.2 0 0 0-2.9 10l-.2 1.4-.2 1.6v7.2c0 .3 0 1.3.1 2v2c0 .5.1 1.1.2 1.6l.2 1.6.3 1.6v.8l.2.8A52.8 52.8 0 0 0 3.5 74a51.5 51.5 0 0 0 3 6.5l.9 1.6 1 1.6.5.8.5.8 1.1 1.5 1.5 1.6a53.7 53.7 0 0 0 13.8 11.8l1.6.9.8.4.7.4.9.5.9.4 1.7.8 1.9.8 1.2.4 1.4.5a52.4 52.4 0 0 0 6.7 1.6l3.4.5h8.8a51.3 51.3 0 0 0 10.4-.6l1.4-.3h.7l.8-.2 1.5-.4.7-.2.7-.2 2.6-.8 2.5-.9 1.5-.6 1.4-.6 2.8-1.4a52.6 52.6 0 0 0 9.9-6.7 58.8 58.8 0 0 0 6.3-6.2l.9-1.1A66.1 66.1 0 0 0 104 81l.5-.9a59.2 59.2 0 0 0 4.2-10.1l.2-.7a54.2 54.2 0 0 0 1.3-6.2c.1-.5.1-1 .2-1.5s.1-1 .1-1.4.1-1.8.1-2.5-.1-3.9-.2-1.7zM31.1 6.7l1.1-.6 1.1-.6 1.2-.5 1.2-.5 1.2-.5 1.1-.4 1.1-.4A49.2 49.2 0 0 1 48.8 1 53.4 53.4 0 0 1 60.4.7H62l1.6.2H66l.8.2 1.6.4.8.2.8.2 1.5.4 1.5.5.8.3.8.3 1.6.6a45 45 0 0 1 7.4 3.9l1 .7.5.3.5.4 1 .7.9.7 1.7 1.3 1.1 1-1.6-1.2-3.5-1.8-1.8-1-1.9-1-.7-.4-.8-.3-1.5-.7a53.1 53.1 0 0 0-13.4-3.8l-1.4-.2H49A52.1 52.1 0 0 0 39.8 4 53.6 53.6 0 0 0 31 7l-.5.2zM17.7 17.1a53.1 53.1 0 0 1 6.1-5.6l1.1-.7 1.1-.7 1-.6 1-.5 1.1-.6 1.1-.6 1.2-.5 1.2-.5 1.2-.5 1.1-.4 1.1-.4a49.1 49.1 0 0 1 9.7-2.3l4.7-.4a49.5 49.5 0 0 0-5.2 1 53.5 53.5 0 0 0-8.8 3l-.7.3a56.5 56.5 0 0 0-7.8 4.5l-1.5 1-1.4 1.2-1.4 1.2-.7.6-.7.6-1.3 1.3-.7.7-.6.7-.6.7-.6.7-1.2 1.4a59.3 59.3 0 0 0-4.3 6.1c-.6 1.1-1.3 2.1-1.8 3.3l-.4.8-.2.4-.2.4-.7 1.7-.6 1.2a50.2 50.2 0 0 0-2.9 10l-.3 1.6-.2 1.6V56c0 .3 0 1.3.1 2v2c0 .5.1 1.1.2 1.6l.2 1.6.3 1.6v.8l.2.8A52.7 52.7 0 0 0 8.8 74a51.3 51.3 0 0 0 3 6.5l.9 1.6a51.3 51.3 0 0 1-8.3-20.9 53.5 53.5 0 0 1-.7-9.3v-1.2c0-.4 0-.8.1-1.2l.2-2.2.3-2.3c.1-.8.3-1.5.4-2.3V42l.2-.7.4-1.3v-.7l.2-.7.4-1.4.4-1.3a53.4 53.4 0 0 1 4.6-10 49.9 49.9 0 0 1 6.8-8.8zm29.9 89.8A55.7 55.7 0 0 1 38 105l-.8-.2-.8-.3-1.4-.5a50.9 50.9 0 0 1-7.4-3.4l-.6-.3-1-.6-1-.6-2-1.3a52.4 52.4 0 0 1-9.4-8.4A51.5 51.5 0 0 1 1.3 63.5a53.4 53.4 0 0 1-.7-9.3V53c0-.4 0-.8.1-1.2l.2-2.3.3-2.3c.1-.8.3-1.5.4-2.3v-.7l.2-.7.3-1.4v-.7l.2-.7.7-1.2.4-1.3a53.4 53.4 0 0 1 4.6-10 49.8 49.8 0 0 1 6.6-8.8l2.1-2.1-.5.6-1.2 1.4a59.4 59.4 0 0 0-4.3 6.1c-.6 1.1-1.3 2.1-1.8 3.3l-.4.8-.2.4-.2.4-.7 1.7-.5 1.3a50.3 50.3 0 0 0-2.9 10c-.1.5-.2 1-.3 1.6l-.2 1.6v7.2c0 .3 0 1.3.1 2v2c0 .5.1 1.1.2 1.6l.2 1.6V63.3l.2.8a52.5 52.5 0 0 0 2.3 7.6 50.9 50.9 0 0 0 3 6.5l.9 1.7 1 1.6.5.8.5.8 1.1 1.5 1.4 1.7a53.7 53.7 0 0 0 4.1 4.1 53.7 53.7 0 0 0 12.1 9.8l1.6.9.8.4.7.4.9.5.9.4 1.7.8 1.9.8 1.2.4 1.4.5a52.4 52.4 0 0 0 6.7 1.6h-1.3zm12.1-.3h-2l-2 .2h-.8l-2-.2a55.7 55.7 0 0 1-9.6-1.9l-.8-.2-.8-.3-1.5-.5a50.9 50.9 0 0 1-7.4-3.4l-.6-.3-1-.6-1-.6-1.9-1.3-1.5-1.1 2.1 1.6 1.6.9.8.4.7.4.9.5.9.4 1.7.8 1.9.8 1.2.4 1.4.5a52.2 52.2 0 0 0 6.7 1.7l3.4.5h3.5a50.8 50.8 0 0 0 10.4-.6l1.4-.3h.7l.8-.2 1.5-.4.7-.2.7-.2 2.6-.8 2.5-.9 1.5-.6 1.4-.6.5-.2-.5.3-.6.3-1.3.7-1.3.6-1.3.6-1.3.5-1.3.5-1.4.5-1.4.4-2 .6-2 .5h-1l-1 .2-1 .2zM110.1 49.2c0 .3.1.6.1.9v.9c0 .6.1 1.1.1 1.5s.2 2.9.2 2.3a12.6 12.6 0 0 0 0-1.7c0-.8-.1-1.7-.1-2.5v-1.3l-.2-1.4c-.1-.5-.2-.9-.3-1.2s-.1-.2-.1 0 .2 1.4.3 2.5z"></path><circle cx="99.8" cy="31.5" r=".7"></circle><circle cx="102.8" cy="29.1" r=".3"></circle><circle cx="105.3" cy="40.3" r=".8"></circle><circle cx="103.6" cy="35" r=".4"></circle><circle cx="104.5" cy="42.7" r=".7"></circle><circle cx="109.4" cy="41.5" r=".5"></circle></g></g><g id="main_text" rel="mainfill" name="main_text" feature="main_text" xmlns:name="mainText_mainfill" groupname="main_text" fill="#ffffff" transform="translate(146.69372215802102, 293.44794406139357) scale(3.7901982003696535)"><path d="M10.56 17.200000000000003 l1.2 1.72 c-1.14 0.98 -2.68 1.48 -4.26 1.48 c-3.14 0 -6.1 -2.04 -6.1 -5.54 c0 -3.52 3.02 -5.48 6.12 -5.48 c1.52 0 3.02 0.44 4.16 1.3 l-1.38 1.6 c-0.78 -0.54 -1.8 -0.82 -2.78 -0.82 c-2 0 -3.94 1.1 -3.94 3.44 s1.98 3.42 3.96 3.42 c1.08 0 2.22 -0.4 3.02 -1.12 z M21.32 16.64 l0.28 0 l-2.02 -3.84 l-2.46 4.74 c0.66 -0.34 2.06 -0.9 4.2 -0.9 z M18.52 10.780000000000001 l-0.68 -1.3 l2.22 0 l5.6 10.6 l-2.26 0 l-0.82 -1.56 l-1.24 0 c-2.56 0 -5.22 1 -5.56 1.44 l-0.06 0.12 l-2.16 0 z M37.02 17.200000000000003 l1.2 1.72 c-1.14 0.98 -2.68 1.48 -4.26 1.48 c-3.14 0 -6.1 -2.04 -6.1 -5.54 c0 -3.52 3.02 -5.48 6.12 -5.48 c1.52 0 3.02 0.44 4.16 1.3 l-1.38 1.6 c-0.78 -0.54 -1.8 -0.82 -2.78 -0.82 c-2 0 -3.94 1.1 -3.94 3.44 s1.98 3.42 3.96 3.42 c1.08 0 2.22 -0.4 3.02 -1.12 z M43.86 15.96 l0 4.12 l-2.04 0 l0 -10.36 l2.04 0 l0 4.14 c0.38 -0.18 0.8 -0.26 1.22 -0.26 c0.86 0 2.08 0.3 3.12 0.3 c0.44 0 0.88 -0.06 1.3 -0.26 l0 -3.92 l2.04 0 l0 10.36 l-2.04 0 l0 -4.34 c-0.4 0.2 -0.8 0.26 -1.22 0.26 c-1.08 0 -2.1 -0.28 -3.12 -0.28 c-0.46 0 -0.88 0.06 -1.3 0.24 z M58.379999999999995 16.360000000000003 l0 1.64 l6.5 0 l0 2.08 l-8.54 0 l0 -10.36 l8.16 0 l0 2.06 l-6.12 0 l0 2.52 c0.9 -0.52 2.04 -0.6 3.24 -0.6 l1.52 0 l0 2.06 l-1.52 0 c-1.9 0 -2.34 0.12 -3.24 0.6 z M73.89999999999999 11.780000000000001 l-2.06 0 l0 6.22 l2.06 0 c2 0 3.14 -1.14 3.14 -3.14 c0 -2.02 -1.14 -3.08 -3.14 -3.08 z M68.39999999999999 11.780000000000001 l-0.92 -2.06 l6.42 0 c3.12 0 5.24 1.8 5.24 5.1 c0 3.22 -2.08 5.26 -5.24 5.26 l-4.22 0 l0 -8.3 l-1.28 0 z"></path></g><g id="SvgjsG3958" rel="mainfill" name="symbol" feature="symbol" xmlns:name="symbol_mainfill" fill="#ffffff" transform="translate(234.35299886420714, 195.9777004328044) scale(1.2936799733658826)"><path xmlns="http://www.w3.org/2000/svg" d="M31.066,70.916h15.407l-0.632,6.789c-0.009,0.166-0.305,4.045-7.001,4.045c-0.553,0-1,0.447-1,1s0.447,1,1,1h27.48  c0.553,0,1-0.447,1-1s-0.447-1-1-1c-6.697,0-6.992-3.879-7.004-4.093l-0.629-6.741h29.309c1.654,0,3-1.346,3-3v-5.437H31.066V70.916  z M87.997,16.25H17.164c-1.654,0-3,1.346-3,3v20.677h13.902c1.654,0,3,1.346,3,3v18.553h59.931V19.25  C90.997,17.596,89.651,16.25,87.997,16.25z M28.071,40.968H10.895c-1.045,0-1.892,0.847-1.892,1.891V79.42  c0,1.044,0.847,1.891,1.892,1.891h17.177c1.045,0,1.892-0.847,1.892-1.891V42.858C29.963,41.814,29.116,40.968,28.071,40.968z   M19.482,79.225c-0.736,0-1.334-0.598-1.334-1.334c0-0.737,0.598-1.335,1.334-1.335c0.737,0,1.334,0.598,1.334,1.335  C20.816,78.627,20.22,79.225,19.482,79.225z M23.482,43.889h-8c-0.276,0-0.5-0.224-0.5-0.5s0.224-0.5,0.5-0.5h8  c0.276,0,0.5,0.224,0.5,0.5S23.759,43.889,23.482,43.889z"></path></g></svg>